<svg width="17" height="22" viewBox="0 0 17 22" fill="none" xmlns="http://www.w3.org/2000/svg">
<g clip-path="url(#clip0)">
<path d="M8.04596 4.58333C5.84033 4.58333 4.04596 6.3777 4.04596 8.58333C4.04596 10.789 5.84033 12.5833 8.04596 12.5833C10.2516 12.5833 12.046 10.789 12.046 8.58333C12.046 6.3777 10.2516 4.58333 8.04596 4.58333ZM8.04596 11.25C6.57554 11.25 5.37929 10.0537 5.37929 8.58333C5.37929 7.11291 6.57554 5.91666 8.04596 5.91666C9.51638 5.91666 10.7126 7.11291 10.7126 8.58333C10.7126 10.0537 9.51638 11.25 8.04596 11.25ZM8.04596 0.583328C3.62767 0.583328 0.0459595 4.16504 0.0459595 8.58333C0.0459595 11.8089 1.16971 12.7096 7.22379 21.4862C7.62104 22.0601 8.47083 22.0602 8.86817 21.4862C14.9222 12.7096 16.046 11.8089 16.046 8.58333C16.046 4.16504 12.4643 0.583328 8.04596 0.583328ZM8.04596 20.3305C2.242 11.937 1.37929 11.2706 1.37929 8.58333C1.37929 6.80258 2.07275 5.12845 3.33192 3.86929C4.59108 2.61012 6.26521 1.91666 8.04596 1.91666C9.82671 1.91666 11.5008 2.61012 12.76 3.86929C14.0192 5.12845 14.7126 6.80258 14.7126 8.58333C14.7126 11.2704 13.8505 11.9362 8.04596 20.3305Z" fill="#0D03FC"/>
</g>
<defs>
<clipPath id="clip0">
<rect width="16" height="21.3333" fill="white" transform="translate(0.0459595 0.583328)"/>
</clipPath>
</defs>
</svg>
